<?xml version="1.0" standalone="no"?>
<!DOCTYPE svg PUBLIC "-//W3C//DTD SVG 20010904//EN"
 "http://www.w3.org/TR/2001/REC-SVG-20010904/DTD/svg10.dtd">
<svg version="1.0" xmlns="http://www.w3.org/2000/svg"
 width="729.000000pt" height="729.000000pt" viewBox="0 0 729.000000 729.000000"
 preserveAspectRatio="xMidYMid meet">
<metadata>
Created by potrace 1.11, written by Peter Selinger 2001-2013
</metadata>
<g transform="translate(0.000000,729.000000) scale(0.100000,-0.100000)"
fill="#000000" stroke="none">
<path d="M3524 7064 c-90 -15 -134 -29 -204 -65 -179 -93 -327 -282 -366 -469
-17 -82 -25 -218 -13 -226 5 -2 6 -11 3 -18 -3 -7 2 -43 10 -79 64 -274 294
-487 576 -533 63 -10 191 -11 197 -1 3 5 11 6 18 3 39 -15 219 57 309 123 62
46 158 151 183 201 10 19 23 40 29 46 14 16 63 164 71 217 9 53 7 192 -2 232
-4 17 -8 35 -9 40 -40 170 -151 329 -291 419 -159 103 -335 141 -511 110z
m246 -282 c103 -28 207 -119 261 -228 33 -66 34 -73 34 -184 0 -111 -1 -117
-35 -184 -55 -111 -132 -180 -251 -224 -43 -16 -75 -20 -145 -18 -102 2 -112
5 -188 42 -225 110 -307 411 -169 619 68 101 191 180 299 191 33 4 60 7 61 8
4 4 95 -12 133 -22z"/>
<path d="M2897 5935 c-94 -33 -234 -173 -314 -315 -27 -48 -79 -184 -88 -230
-18 -96 -26 -574 -11 -688 14 -116 94 -223 206 -276 l65 -31 885 0 885 0 65
31 c110 53 191 157 207 267 7 50 7 525 -1 616 -19 224 -151 451 -342 587 -75
53 -123 63 -174 36 -100 -55 -102 -175 -4 -243 115 -79 208 -213 239 -344 18
-77 21 -604 4 -636 -24 -45 -28 -46 -884 -44 -445 0 -820 4 -832 8 -50 18 -52
35 -52 329 1 190 5 292 15 336 29 139 114 263 241 354 72 52 86 146 32 205
-43 45 -87 58 -142 38z"/>
<path d="M3574 4071 c-16 -10 -39 -31 -49 -47 -19 -27 -20 -48 -20 -344 l0
-315 -1361 -1 c-1234 -2 -1364 -3 -1392 -18 -32 -16 -63 -55 -70 -85 -2 -9 -4
-179 -4 -377 -1 -341 0 -364 18 -395 40 -69 134 -92 194 -49 58 42 60 52 60
364 l0 285 83 -1 c45 0 87 1 92 2 6 1 15 2 20 1 14 -3 208 -3 220 -1 6 1 12 2
15 1 7 -3 773 -3 785 -1 6 1 12 2 15 1 7 -3 293 -3 305 -1 6 1 15 2 20 1 14
-3 208 -3 220 -1 6 1 15 2 20 1 14 -3 208 -3 220 -1 6 1 15 2 20 1 15 -3 368
-3 380 -1 6 1 15 1 20 0 6 -1 34 -2 63 -1 28 1 52 -2 53 -7 0 -4 1 -133 2
-288 l2 -281 25 -36 c43 -63 123 -78 185 -35 59 39 62 60 62 367 l0 276 146 1
c80 1 152 4 160 7 8 3 17 3 20 0 6 -5 280 -8 302 -3 6 1 12 2 15 1 8 -3 534
-3 545 -1 6 1 15 2 20 1 14 -3 208 -3 220 -1 6 1 12 2 15 1 7 -3 773 -3 785
-1 6 1 15 2 20 1 6 -1 76 -2 158 -3 l147 0 0 -279 c0 -304 4 -332 54 -365 76
-49 163 -28 204 51 13 25 15 86 16 395 1 337 0 368 -18 401 -10 20 -32 44 -48
54 -29 16 -105 17 -1394 17 l-1364 0 -1 26 c0 15 -1 154 -1 309 -1 309 -3 325
-60 366 -36 27 -106 31 -144 8z"/>
<path d="M735 2040 c-199 -42 -366 -201 -408 -386 -22 -99 -3 -273 35 -319 14
-16 9 -23 -25 -29 -43 -8 -152 -98 -199 -164 -99 -137 -119 -221 -120 -493 0
-254 8 -288 94 -371 78 -75 62 -73 718 -73 l585 0 45 23 c55 28 77 46 114 95
46 60 55 121 51 355 -3 196 -6 227 -39 327 -41 127 -234 325 -300 307 -9 -3
-6 11 20 78 20 51 24 207 7 276 -37 155 -176 300 -343 359 -53 19 -180 27
-235 15z m145 -275 c103 -23 172 -112 173 -221 1 -135 -97 -236 -229 -236
-164 -1 -273 156 -219 313 27 76 79 122 162 143 52 13 61 13 113 1z m275 -647
c9 -18 43 -54 75 -80 43 -35 67 -64 91 -113 l32 -65 1 -181 c0 -99 -2 -186 -6
-191 -4 -8 -163 -11 -500 -10 -271 0 -508 1 -526 1 l-33 1 1 183 c1 166 4 189
24 239 28 68 52 100 110 145 25 19 51 48 58 64 15 34 22 35 54 10 14 -11 59
-34 100 -51 130 -54 278 -48 411 18 29 14 61 33 70 43 10 10 19 18 20 18 1 1
9 -14 18 -31z"/>
<path d="M3565 2043 c-152 -30 -304 -141 -373 -271 -65 -122 -74 -286 -21
-409 22 -53 23 -54 7 -52 -16 3 -62 -16 -85 -33 -57 -44 -145 -143 -175 -198
-68 -121 -81 -192 -81 -440 0 -141 4 -198 16 -238 19 -61 63 -122 110 -151 78
-48 78 -48 693 -47 l579 1 52 27 c62 33 105 77 135 138 21 42 22 60 24 259 1
220 -7 293 -43 382 -20 53 -71 133 -110 175 -53 57 -143 124 -168 124 -27 0
-31 10 -15 38 17 30 37 115 39 168 2 53 -14 164 -29 193 -4 9 -18 38 -31 64
-72 151 -251 266 -423 272 -45 1 -90 0 -101 -2z m131 -277 c75 -14 145 -80
168 -158 45 -151 -62 -299 -217 -300 -201 -2 -311 229 -181 380 50 59 131 96
189 85 11 -2 29 -5 41 -7z m-311 -661 c85 -51 154 -69 265 -68 104 0 172 20
261 75 25 15 49 28 51 28 3 0 11 -13 18 -30 7 -16 16 -30 20 -30 22 0 122
-112 146 -164 26 -57 27 -65 27 -243 1 -125 -2 -186 -10 -191 -8 -5 -900 -8
-1031 -3 l-24 1 4 198 c3 191 4 199 30 248 26 49 102 134 119 134 5 0 21 18
35 40 15 22 28 40 29 40 1 0 29 -16 60 -35z"/>
<path d="M6355 2031 c-197 -56 -343 -206 -380 -390 -9 -43 -6 -171 4 -190 6
-10 8 -21 5 -23 -3 -3 4 -29 15 -59 11 -29 19 -55 17 -57 -2 -2 -16 -5 -30 -6
-64 -7 -200 -146 -256 -263 -50 -104 -59 -164 -59 -402 l0 -216 30 -62 c31
-65 78 -110 146 -140 34 -16 94 -18 608 -19 315 0 586 3 605 8 89 23 156 78
193 158 18 38 21 67 23 190 2 80 4 147 5 150 1 3 1 8 1 11 -1 3 -4 48 -7 99
-3 52 -8 97 -11 102 -3 4 -7 18 -10 30 -9 39 -10 42 -32 89 -50 108 -180 242
-256 264 l-35 10 19 55 c49 148 42 255 -27 396 -37 77 -107 155 -183 202 -45
28 -102 54 -117 54 -4 0 -17 5 -27 10 -34 18 -176 18 -241 -1z m175 -265 c106
-25 174 -114 174 -226 -1 -243 -306 -321 -436 -112 -24 39 -32 133 -15 189 11
36 113 151 124 139 3 -2 21 1 41 8 39 14 58 14 112 2z m-285 -678 c158 -78
361 -68 499 24 39 25 51 29 54 18 3 -8 42 -51 87 -95 109 -107 119 -136 120
-369 0 -111 -3 -173 -10 -180 -8 -8 -160 -11 -521 -9 -280 1 -514 2 -520 2
-17 1 -14 353 3 403 25 74 62 124 127 174 24 18 49 47 56 64 13 31 13 31 34
12 12 -11 44 -31 71 -44z"/>
</g>
</svg>
